<?xml version="1.0" encoding="utf-8"?>
<!-- Generator: Adobe Illustrator 22.1.0, SVG Export Plug-In . SVG Version: 6.00 Build 0)  -->
<svg version="1.1" id="Calque_1" xmlns="http://www.w3.org/2000/svg" xmlns:xlink="http://www.w3.org/1999/xlink" x="0px" y="0px"
	 viewBox="0 0 209.2 130.2" style="enable-background:new 0 0 209.2 130.2;" xml:space="preserve">
<style type="text/css">
	.st0{fill:#F8AF3C;}
</style>
<g>
	<g id="Logo_x5F_weraw">
		<path class="st0" d="M0,94.3h8.2l5.5,16.7l8-17.1l8,17.1l5.5-16.7h8.2L31,130.2l-9.4-20.5l-9.4,20.5L0,94.3z"/>
		<path class="st0" d="M55.9,94.3h22v7.9h-14v6h11v7.7h-11v6h14v7.9h-22V94.3z"/>
		<path class="st0" d="M100.4,115.4h-0.1v14.4h-8V94.3h13.4c5.8,0,10.6,4.8,10.6,10.6c0,4.5-2.8,8.3-6.9,9.9l11.6,15.1h-9.6
			L100.4,115.4z M104.8,108.6c2.2,0,3.7-1.5,3.7-3.5s-1.5-3.6-3.7-3.6h-4.5v7.1H104.8z"/>
		<path class="st0" d="M145.4,93.9l17.5,35.9h-8.4l-2.5-5.5h-13.1l-2.5,5.5h-8.4L145.4,93.9z M148.8,117.8l-3.4-7.4l-3.4,7.4H148.8z
			"/>
		<path class="st0" d="M165.9,94.3h8.2l5.5,16.7l8-17.1l8,17.1l5.5-16.7h8.2l-12.3,35.9l-9.4-20.5l-9.4,20.5L165.9,94.3z"/>
	</g>
	<polygon class="st0" points="156.7,0 147.2,0 125.8,48.1 122,39.7 140,0 130.6,0 117.4,29.5 113.7,21.3 123.4,0 114,0 109.1,10.9 
		104.2,0 94.8,0 104.5,21.3 100.8,29.5 87.6,0 78.2,0 96.3,39.7 92.5,48.1 71,0 61.5,0 92.5,67.8 103.4,44.1 105.4,39.7 105.4,39.7 
		109.1,31.4 113.5,41 117.4,49.6 117.4,49.6 125.8,67.8 	"/>
</g>
</svg>
